<?xml version="1.0" encoding="UTF-8"?>
<svg id="Layer_2" data-name="Layer 2" xmlns="http://www.w3.org/2000/svg" viewBox="0 0 168.63 330.59">
  <g id="Layer_1-2" data-name="Layer 1">
    <path d="m130.86,139.49H40.42c-3.07,0-5.56-2.49-5.56-5.56v-2.44h102v2.68c0,2.94-2.49,5.32-5.56,5.32"/>
    <path d="m131.63,214c-.1-.49-.13-.98-.09-1.51H7.94c-.75.05-1.36.66-1.36,1.41s.61,1.36,1.36,1.59h123.66c-.02-.66.01-1.06.02-1.49"/>
    <path d="m164.86,212.49h-20.31c.19.94.11,1.89-.2,3h20.33c.75-.23,1.36-.84,1.36-1.59s-.61-1.36-1.36-1.36"/>
    <path d="m164.86,267.49H7.95c-.75-.64-1.36-1.24-1.36-2s.61-1.36,1.36-1h156.73c.75-.36,1.36.25,1.36,1s-.61,1.36-1.36,1.36"/>
    <path d="m137.37,277.55c-1.55,3.07-3.4,5.95-5.25,8.71-3.29,4.89-6.77,9.66-10.4,14.3-4.7,6.01-9.48,12.2-15.03,17.54-2.81,2.71-5.84,5.21-9.13,7.34-3.21,2.07-7.15,4.52-10.99,5.11-.08.02-.17.03-.26.04-.08-.01-.17-.02-.25-.04-3.84-.59-7.78-3.04-11-5.11-3.28-2.13-6.31-4.63-9.13-7.34-5.54-5.34-10.32-11.53-15.02-17.54-3.63-4.64-7.12-9.41-10.41-14.3-1.85-2.76-3.7-5.64-5.25-8.71-.38-.75-1.49-3.16-.6-3.98.84-.77,1.99.39,2.54.92,3.34,3.23,6,7.08,9,10.62,17.68,20.13,30.47,29.66,33.84,28.85,3.38-.82,2.56-5.47,2.56-5.47h7.45s-.82,4.65,2.55,5.47c3.38.81,16.17-8.72,33.85-28.85,3-3.54,5.65-7.39,9-10.62.55-.53,1.7-1.69,2.54-.92.89.82-.22,3.23-.61,3.98"/>
    <path d="m83.86,285.49v-4h-8.41c-.32,0-.64.1-.91.28-1.69,1.13-7.6,5.65-6.24,13.03.18.97,1.38,1.34,2.08.64,1.31-1.33,3.08-3.66,3.89-7.04.15-.63.84-.95,1.43-.66,1.24.61,3.49,1.16,6.87-.08.78-.28,1.29-1.04,1.29-1.87"/>
    <path d="m88.86,285.49v-4s8.42,0,8.42,0c.31,0,.61.09.86.26,1.64,1.09,7.63,5.62,6.27,13.04-.18.98-1.39,1.35-2.08.64-1.3-1.33-3.08-3.65-3.88-7.03-.15-.64-.84-.96-1.43-.67-1.24.61-3.49,1.16-6.87-.08-.78-.28-1.29-1.04-1.29-1.87"/>
    <path d="m34.31,260.49c-.53,0-1.01-.34-1.18-.85l-12.48-36.44c-.22-.65.12-1.36.78-1.59.65-.22,1.36.12,1.59.78l11.27,32.91,10.77-32.89c.21-.66.92-1.02,1.58-.8.66.21,1.01.92.8,1.58l-11.93,36.44c-.17.51-.64.86-1.18.86h0Z"/>
    <path d="m109.72,260.49c-.53,0-1.01-.34-1.18-.85l-12.48-36.44c-.22-.65.12-1.36.78-1.59.66-.22,1.37.12,1.59.78l11.27,32.91,10.77-32.89c.21-.66.92-1.02,1.58-.8.66.21,1.01.92.8,1.58l-11.93,36.44c-.17.51-.64.86-1.18.86h0Z"/>
    <path d="m71.65,260.46c-.69,0-1.25-.56-1.79-1.25v-36.44c.54-.69,1.1-1.25,1.79-1.25s1.25.56,1.21,1.25v36.44c.04.69-.52,1.25-1.21,1.25"/>
    <path d="m147.38,260.46c-.69,0-1.25-.56-1.52-1.25v-36.44c.27-.69.83-1.25,1.52-1.25s1.25.56,1.48,1.25v36.44c-.23.69-.79,1.25-1.48,1.25"/>
    <path d="m162.93,180.32c-.15-.67-.6-1.28-1.04-1.79-.33-.39-.76-.75-1.28-.85-.64-.12-1.23.21-1.69.63-.24.22-.45.47-.65.73-.15.2-.35.39-.39.65-.03.15,0,.3.02.45.12.89-.23,1.84-.93,2.42-1.37,1.14-7.62,4.58-12.78,2.29l11.35-31.53s3.1-9.85-5.73-9.91l-16.45,39.6s-4.05-.08-4.51,2.27c-.45,2.35,1.81,3.98,1.81,3.98,0,0-9.46,13.59-15.99,14.62-6.54,1.03-9.46-3.78-9.12-7.97,0,0,19.09-1.11,23.28-20.79.52-2.47.8-5.21-.09-7.63-1.39-3.82-5.73-5.11-9.44-5.1-5.31,0-10.46,2.97-14.17,6.59-4.09,4-6.42,9.42-8.47,14.65-.53,1.36-1.05,2.72-1.58,4.08-.08.19-.14.4-.25.58,0,0-8.65,13.64-12.43,15.02-1.17.42-.51-2.36-.43-2.76.56-2.62,1.47-5.18,2.36-7.71,1.1-3.12,2.29-6.21,3.51-9.28,1.4-3.51,2.83-7,4.34-10.46.99-2.27,2.27-5.13,1.16-7.61-.86-1.92-3.14-2.6-5.1-2.6-9.33-.32-20.28,17.97-20.95,19.1l13.76-33.9c.34-.83-.03-1.78-.84-2.16l-6.03-2.86c-.86-.41-1.9-.02-2.27.87-3,7.11-14.77,35.31-14.62,38.62,0,0-14.74,19.08-23.62,21.84-2.94.91-6.07,1.42-9.15,1.13-4.11-.39-7.35-3.23-8.4-7.19-.85-3.2-.72-6.81-.6-10.09.23-6.21,1.33-12.46,3.75-18.21,3.92-9.34,11.47-16.95,21.26-19.95,2.25-.69,6.31-1.99,7.96.5,1.35,2.05.64,5.19.01,7.37-.82,2.87-2.11,5.57-4.05,7.86-2.96,3.51-7.19,5.91-11.71,6.65-.97.16-2.05.3-2.66,1.07-.73.91-.41,2.26.23,3.27.04.06.08.13.12.19,1.68,2.38,4.75,3.56,7.66,3.38,2.91-.18,5.65-1.59,7.86-3.49,6.44-5.53,10.96-15.08,9.19-23.62-.83-3.97-2.98-7.07-6.7-8.63-10.7-4.46-21.56,1.32-29.26,8.88-7.51,7.38-11.58,17.38-12.57,27.75-.75,7.87-.61,16.72,4.47,23.24,5.47,7.03,15.19,9.77,23.59,6.9,5.92-2.03,10.94-6.27,14.9-11.02.93-1.12,1.84-2.27,2.61-3.5,0,0-3.66,11.58,5.74,12.26,0,0,3.25.77,3.78-3.36.54-4.13,11.31-28.66,20.33-37.18-.8,1.74-1.58,3.51-2.34,5.27-1.48,3.4-2.89,6.81-4.22,10.26-2.05,5.33-4.31,10.87-4.12,16.68.06,1.86.35,3.77,1.24,5.42.7,1.31,1.83,2.46,3.23,3.03,1.66.67,3.65.64,5.41.5,8.48-.69,13.76-15.37,13.76-15.37,0,0,6.26,31.72,33.7,5.28-1.62,4.38-2.6,9.01-3.82,13.53-1.13,4.21-2.38,8.83-2.44,13.22-.04,2.29-.04,4.34,1.07,6.34,1.52,2.75,5.36,4.87,8.66,3.84,3.41-1.05,5.97-3.53,8.01-6.26,5.04-6.75,7.04-15.34,7.21-23.79.11-5.43.24-10.32-1.26-15.52.02.05.86,0,.92-.02.8-.03,1.59-.09,2.38-.19,1.11-.13,2.2-.32,3.28-.59,1.22-.3,2.43-.69,3.58-1.21,1.18-.53,2.31-1.21,3.3-2.05,1.39-1.19,2.41-2.72,3.02-4.45.22-.65.48-1.52.33-2.21m-56.8,9.94c1.34-4.8,6.13-19.47,15.06-21.75.5-.13.97.26.91.77-.4,3.46-2.63,15.34-14.94,21.8-.56.29-1.2-.21-1.03-.82m26.63,40.59c-.34.48-1.09.22-1.07-.36.36-8.14,7.34-30.58,9.37-36.97.17-.55.96-.53,1.12.03,4.47,15.51-6.04,32.41-9.42,37.3"/>
    <path d="m138.7,28.13c-.17,0-13.56.03-23.33,9.26,0,0,3.9-9.42,20.76-11.3C130.45,10.85,115.75,0,98.52,0c-19.34,0-35.49,13.67-39.31,31.88,0,0,0,.02-.01.05-.01.02-.01.05-.02.09-.11.59-.22,1.19-.32,1.79-.02-.02-.04-.04-.06-.05-.55,3-1.35,9.32-.27,17.03,0,0-3.2-5.45-2.58-19.45-6.28-4.81-14.23-7.5-22.84-7.08C15.71,25.11,1.41,39.02.1,56.39c-1.54,20.46,14.61,37.54,34.76,37.54,8.91,0,17.04-3.34,23.19-8.83-11.1,13.63-23.19,11.97-23.19,11.97v30.42h102v-31.19s-14.64-1.12-22.03-13.09c5.65,6.59,13.8,10.72,22.85,10.72,17.09,0,30.94-14.74,30.94-32.91s-13.31-32.32-29.92-32.89M59.86,117.58c0,.55-.45,1-1,1s-1-.45-1-1v-15.91c0-.55.45-1,1-1s1,.45,1,1v15.91Zm30,0c0,.55-.45,1-1,1s-1-.45-1-1v-15.91c0-.55.44-1,1-1s1,.45,1,1v15.91Zm29-15.91c0-.55.45-1,1-1s1,.45,1,1v15.91c0,.55-.45,1-1,1s-1-.45-1-1v-15.91Z"/>
  </g>
</svg>